<mxfile host="65bd71144e">
    <diagram id="Ax0mkSbOhNJ_BfKVR5W5" name="第 1 页">
        <mxGraphModel dx="1009" dy="640" grid="1" gridSize="10" guides="1" tooltips="1" connect="1" arrows="1" fold="1" page="1" pageScale="1" pageWidth="10000" pageHeight="10000" math="0" shadow="0">
            <root>
                <mxCell id="0"/>
                <mxCell id="1" parent="0"/>
                <mxCell id="45" value="" style="rounded=1;whiteSpace=wrap;html=1;fontColor=#00FF00;arcSize=3;fontSize=16;strokeColor=#FFFFFF;labelBorderColor=none;" parent="1" vertex="1">
                    <mxGeometry x="80" y="70" width="620" height="370" as="geometry"/>
                </mxCell>
                <mxCell id="46" value="应用A：&lt;font color=&quot;#ff0000&quot; style=&quot;font-size: 16px;&quot;&gt;http//hostA/patchA/#hashA&lt;/font&gt;" style="rounded=1;whiteSpace=wrap;html=1;shadow=0;glass=0;dashed=1;sketch=0;gradientColor=none;fontSize=16;labelBorderColor=none;" parent="1" vertex="1">
                    <mxGeometry x="80" y="417" width="620" height="23" as="geometry"/>
                </mxCell>
                <mxCell id="47" value="urll：&lt;font color=&quot;#ff0000&quot; style=&quot;font-size: 16px;&quot;&gt;http//hostA/patchA/#hashA&lt;/font&gt;&lt;span style=&quot;font-weight: 700; font-size: 16px;&quot;&gt;&lt;font color=&quot;#0000ff&quot; style=&quot;font-size: 16px;&quot;&gt;?B=patchB/#hashB&lt;/font&gt;&lt;/span&gt;" style="rounded=1;whiteSpace=wrap;html=1;shadow=0;glass=0;sketch=0;gradientColor=none;fontSize=16;labelBorderColor=none;" parent="1" vertex="1">
                    <mxGeometry x="80" y="70" width="620" height="23" as="geometry"/>
                </mxCell>
                <mxCell id="48" value="DOM Tree" style="rounded=1;whiteSpace=wrap;html=1;fontSize=16;labelBorderColor=none;" parent="1" vertex="1">
                    <mxGeometry x="100" y="140" width="110" height="80" as="geometry"/>
                </mxCell>
                <mxCell id="64" style="edgeStyle=orthogonalEdgeStyle;curved=1;rounded=0;orthogonalLoop=1;jettySize=auto;html=1;exitX=1;exitY=0.5;exitDx=0;exitDy=0;entryX=0.5;entryY=0;entryDx=0;entryDy=0;fontColor=#00FF00;fontSize=16;labelBorderColor=none;" parent="1" source="50" target="59" edge="1">
                    <mxGeometry relative="1" as="geometry"/>
                </mxCell>
                <mxCell id="50" value="容器" style="whiteSpace=wrap;html=1;rounded=1;arcSize=50;align=center;verticalAlign=middle;strokeWidth=1;autosize=1;spacing=4;treeFolding=1;treeMoving=1;newEdgeStyle={&quot;edgeStyle&quot;:&quot;entityRelationEdgeStyle&quot;,&quot;startArrow&quot;:&quot;none&quot;,&quot;endArrow&quot;:&quot;none&quot;,&quot;segment&quot;:10,&quot;curved&quot;:1};fontSize=16;labelBorderColor=none;" parent="1" vertex="1">
                    <mxGeometry x="235" y="140" width="70" height="30" as="geometry"/>
                </mxCell>
                <mxCell id="51" value="" style="edgeStyle=entityRelationEdgeStyle;startArrow=none;endArrow=none;segment=10;curved=1;exitX=1;exitY=0.5;exitDx=0;exitDy=0;fontSize=16;labelBorderColor=none;" parent="1" source="48" target="50" edge="1">
                    <mxGeometry relative="1" as="geometry">
                        <mxPoint x="185" y="140" as="sourcePoint"/>
                    </mxGeometry>
                </mxCell>
                <mxCell id="52" value="" style="group;fontSize=16;labelBorderColor=none;" parent="1" vertex="1" connectable="0">
                    <mxGeometry x="130" y="310" width="520" height="88" as="geometry"/>
                </mxCell>
                <mxCell id="53" value="" style="rounded=0;whiteSpace=wrap;html=1;shadow=0;glass=0;dashed=1;sketch=0;gradientColor=none;fontSize=16;labelBorderColor=none;" parent="52" vertex="1">
                    <mxGeometry width="520" height="88" as="geometry"/>
                </mxCell>
                <mxCell id="54" value="应用B： &lt;font color=&quot;#0000ff&quot; style=&quot;font-size: 16px;&quot;&gt;http//hostB/patchB/#hashB&lt;/font&gt;" style="rounded=0;whiteSpace=wrap;html=1;shadow=0;glass=0;dashed=1;sketch=0;gradientColor=none;fontSize=16;labelBorderColor=none;" parent="52" vertex="1">
                    <mxGeometry y="60" width="520" height="28" as="geometry"/>
                </mxCell>
                <mxCell id="55" value="html (dom、css、iframe)" style="rounded=0;whiteSpace=wrap;html=1;shadow=0;glass=0;dashed=1;sketch=0;gradientColor=none;fontSize=16;labelBorderColor=none;" parent="52" vertex="1">
                    <mxGeometry x="46.42857142857143" y="13.000000000000002" width="185.71428571428572" height="35.2" as="geometry"/>
                </mxCell>
                <mxCell id="56" value="js" style="rounded=0;whiteSpace=wrap;html=1;shadow=0;glass=0;dashed=1;sketch=0;gradientColor=none;fontSize=16;labelBorderColor=none;" parent="52" vertex="1">
                    <mxGeometry x="347.2142857142857" y="12.600000000000001" width="125.35714285714286" height="35.2" as="geometry"/>
                </mxCell>
                <mxCell id="57" value="改写document" style="edgeStyle=orthogonalEdgeStyle;curved=1;rounded=0;orthogonalLoop=1;jettySize=auto;html=1;exitX=0.5;exitY=0;exitDx=0;exitDy=0;entryX=0.75;entryY=0;entryDx=0;entryDy=0;fontSize=16;labelBorderColor=none;" parent="1" source="58" target="59" edge="1">
                    <mxGeometry relative="1" as="geometry"/>
                </mxCell>
                <mxCell id="83" style="edgeStyle=orthogonalEdgeStyle;curved=1;rounded=0;orthogonalLoop=1;jettySize=auto;html=1;exitX=0.75;exitY=0;exitDx=0;exitDy=0;entryX=0.5;entryY=1;entryDx=0;entryDy=0;fontSize=16;startArrow=classic;startFill=1;" parent="1" source="58" target="47" edge="1">
                    <mxGeometry relative="1" as="geometry"/>
                </mxCell>
                <mxCell id="84" value="&lt;font color=&quot;#0000ff&quot;&gt;同步&lt;/font&gt;" style="edgeLabel;html=1;align=center;verticalAlign=middle;resizable=0;points=[];fontSize=16;fontColor=#FFFFFF;" parent="83" vertex="1" connectable="0">
                    <mxGeometry x="0.1518" relative="1" as="geometry">
                        <mxPoint x="-1" as="offset"/>
                    </mxGeometry>
                </mxCell>
                <mxCell id="86" style="edgeStyle=orthogonalEdgeStyle;curved=1;rounded=0;orthogonalLoop=1;jettySize=auto;html=1;exitX=1;exitY=0.75;exitDx=0;exitDy=0;entryX=0.75;entryY=1;entryDx=0;entryDy=0;fontSize=16;startArrow=classic;startFill=1;" parent="1" source="58" target="65" edge="1">
                    <mxGeometry relative="1" as="geometry"/>
                </mxCell>
                <mxCell id="87" value="同步" style="edgeLabel;html=1;align=center;verticalAlign=middle;resizable=0;points=[];fontSize=16;fontColor=#FFFFFF;" parent="86" vertex="1" connectable="0">
                    <mxGeometry x="-0.2799" y="16" relative="1" as="geometry">
                        <mxPoint as="offset"/>
                    </mxGeometry>
                </mxCell>
                <mxCell id="58" value="iframe&lt;br style=&quot;font-size: 16px;&quot;&gt;&lt;span style=&quot;color: rgb(255, 0, 0); font-size: 16px;&quot;&gt;http//hostA&lt;/span&gt;&lt;font color=&quot;#0000ff&quot; style=&quot;font-size: 16px;&quot;&gt;/patchB/#hashB&lt;/font&gt;" style="rounded=1;whiteSpace=wrap;html=1;shadow=0;glass=0;sketch=0;gradientColor=none;fontSize=16;labelBorderColor=none;" parent="1" vertex="1">
                    <mxGeometry x="400" y="197.5" width="200" height="60" as="geometry"/>
                </mxCell>
                <mxCell id="59" value="shadowRoot" style="whiteSpace=wrap;html=1;rounded=1;strokeWidth=1;spacing=4;arcSize=50;fontSize=16;labelBorderColor=none;" parent="1" vertex="1">
                    <mxGeometry x="270" y="210" width="100" height="35" as="geometry"/>
                </mxCell>
                <mxCell id="60" value="插入" style="edgeStyle=orthogonalEdgeStyle;curved=1;rounded=0;orthogonalLoop=1;jettySize=auto;html=1;exitX=0.5;exitY=0;exitDx=0;exitDy=0;entryX=0.5;entryY=1;entryDx=0;entryDy=0;fontSize=16;labelBorderColor=none;" parent="1" source="55" target="59" edge="1">
                    <mxGeometry relative="1" as="geometry"/>
                </mxCell>
                <mxCell id="61" style="edgeStyle=orthogonalEdgeStyle;curved=1;rounded=0;orthogonalLoop=1;jettySize=auto;html=1;exitX=0.5;exitY=0;exitDx=0;exitDy=0;entryX=0.5;entryY=1;entryDx=0;entryDy=0;fontSize=16;labelBorderColor=none;" parent="1" source="56" target="58" edge="1">
                    <mxGeometry relative="1" as="geometry">
                        <Array as="points">
                            <mxPoint x="541" y="285"/>
                            <mxPoint x="500" y="285"/>
                        </Array>
                    </mxGeometry>
                </mxCell>
                <mxCell id="62" value="运行" style="edgeLabel;html=1;align=center;verticalAlign=middle;resizable=0;points=[];fontSize=15;labelBorderColor=none;" parent="61" vertex="1" connectable="0">
                    <mxGeometry x="0.0122" y="1" relative="1" as="geometry">
                        <mxPoint as="offset"/>
                    </mxGeometry>
                </mxCell>
                <mxCell id="65" value="window" style="rounded=1;whiteSpace=wrap;html=1;fontSize=16;labelBorderColor=none;" parent="1" vertex="1">
                    <mxGeometry x="570" y="110" width="120" height="75.25" as="geometry"/>
                </mxCell>
                <mxCell id="88" value="未命名图层" parent="0"/>
                <mxCell id="89" value="" style="rounded=1;whiteSpace=wrap;html=1;fontColor=#00FF00;arcSize=3;fontSize=16;strokeColor=#FFFFFF;labelBorderColor=none;" parent="88" vertex="1">
                    <mxGeometry x="80" y="70" width="620" height="370" as="geometry"/>
                </mxCell>
                <mxCell id="90" value="应用A：&lt;font color=&quot;#ff0000&quot; style=&quot;font-size: 16px;&quot;&gt;http//hostA/patchA/#hashA&lt;/font&gt;" style="rounded=1;whiteSpace=wrap;html=1;shadow=0;glass=0;dashed=1;sketch=0;gradientColor=none;fontSize=16;labelBorderColor=none;" parent="88" vertex="1">
                    <mxGeometry x="80" y="417" width="620" height="23" as="geometry"/>
                </mxCell>
                <mxCell id="91" value="urll：&lt;font color=&quot;#ff0000&quot; style=&quot;font-size: 16px;&quot;&gt;http//hostA/patchA/#hashA&lt;/font&gt;&lt;span style=&quot;font-weight: 700; font-size: 16px;&quot;&gt;&lt;font color=&quot;#0000ff&quot; style=&quot;font-size: 16px;&quot;&gt;?B=patchB/#hashB&lt;/font&gt;&lt;/span&gt;" style="rounded=1;whiteSpace=wrap;html=1;shadow=0;glass=0;sketch=0;gradientColor=none;fontSize=16;labelBorderColor=none;" parent="88" vertex="1">
                    <mxGeometry x="80" y="70" width="620" height="23" as="geometry"/>
                </mxCell>
                <mxCell id="92" value="DOM Tree" style="rounded=1;whiteSpace=wrap;html=1;fontSize=16;labelBorderColor=none;" parent="88" vertex="1">
                    <mxGeometry x="100" y="140" width="110" height="80" as="geometry"/>
                </mxCell>
                <mxCell id="93" style="edgeStyle=orthogonalEdgeStyle;curved=1;rounded=0;orthogonalLoop=1;jettySize=auto;html=1;exitX=1;exitY=0.5;exitDx=0;exitDy=0;entryX=0.5;entryY=0;entryDx=0;entryDy=0;fontColor=#00FF00;fontSize=16;labelBorderColor=none;" parent="88" source="94" target="107" edge="1">
                    <mxGeometry relative="1" as="geometry"/>
                </mxCell>
                <mxCell id="94" value="容器" style="whiteSpace=wrap;html=1;rounded=1;arcSize=50;align=center;verticalAlign=middle;strokeWidth=1;autosize=1;spacing=4;treeFolding=1;treeMoving=1;newEdgeStyle={&quot;edgeStyle&quot;:&quot;entityRelationEdgeStyle&quot;,&quot;startArrow&quot;:&quot;none&quot;,&quot;endArrow&quot;:&quot;none&quot;,&quot;segment&quot;:10,&quot;curved&quot;:1};fontSize=16;labelBorderColor=none;" parent="88" vertex="1">
                    <mxGeometry x="235" y="140" width="70" height="30" as="geometry"/>
                </mxCell>
                <mxCell id="95" value="" style="edgeStyle=entityRelationEdgeStyle;startArrow=none;endArrow=none;segment=10;curved=1;exitX=1;exitY=0.5;exitDx=0;exitDy=0;fontSize=16;labelBorderColor=none;" parent="88" source="92" target="94" edge="1">
                    <mxGeometry relative="1" as="geometry">
                        <mxPoint x="185" y="140" as="sourcePoint"/>
                    </mxGeometry>
                </mxCell>
                <mxCell id="96" value="" style="group;fontSize=16;labelBorderColor=none;" parent="88" vertex="1" connectable="0">
                    <mxGeometry x="130" y="310" width="520" height="88" as="geometry"/>
                </mxCell>
                <mxCell id="97" value="" style="rounded=0;whiteSpace=wrap;html=1;shadow=0;glass=0;dashed=1;sketch=0;gradientColor=none;fontSize=16;labelBorderColor=none;" parent="96" vertex="1">
                    <mxGeometry width="520" height="88" as="geometry"/>
                </mxCell>
                <mxCell id="98" value="应用B： &lt;font color=&quot;#0000ff&quot; style=&quot;font-size: 16px;&quot;&gt;http//hostB/patchB/#hashB&lt;/font&gt;" style="rounded=0;whiteSpace=wrap;html=1;shadow=0;glass=0;dashed=1;sketch=0;gradientColor=none;fontSize=16;labelBorderColor=none;" parent="96" vertex="1">
                    <mxGeometry y="60" width="520" height="28" as="geometry"/>
                </mxCell>
                <mxCell id="99" value="html (dom、css、iframe)" style="rounded=0;whiteSpace=wrap;html=1;shadow=0;glass=0;dashed=1;sketch=0;gradientColor=none;fontSize=16;labelBorderColor=none;" parent="96" vertex="1">
                    <mxGeometry x="46.42857142857143" y="13.000000000000002" width="185.71428571428572" height="35.2" as="geometry"/>
                </mxCell>
                <mxCell id="100" value="js" style="rounded=0;whiteSpace=wrap;html=1;shadow=0;glass=0;dashed=1;sketch=0;gradientColor=none;fontSize=16;labelBorderColor=none;" parent="96" vertex="1">
                    <mxGeometry x="347.2142857142857" y="12.600000000000001" width="125.35714285714286" height="35.2" as="geometry"/>
                </mxCell>
                <mxCell id="101" value="改写document" style="edgeStyle=orthogonalEdgeStyle;curved=1;rounded=0;orthogonalLoop=1;jettySize=auto;html=1;exitX=0.5;exitY=0;exitDx=0;exitDy=0;entryX=0.75;entryY=0;entryDx=0;entryDy=0;fontSize=16;labelBorderColor=none;" parent="88" source="106" target="107" edge="1">
                    <mxGeometry relative="1" as="geometry"/>
                </mxCell>
                <mxCell id="102" style="edgeStyle=orthogonalEdgeStyle;curved=1;rounded=0;orthogonalLoop=1;jettySize=auto;html=1;exitX=0.75;exitY=0;exitDx=0;exitDy=0;entryX=0.5;entryY=1;entryDx=0;entryDy=0;fontSize=16;startArrow=classic;startFill=1;" parent="88" source="106" target="91" edge="1">
                    <mxGeometry relative="1" as="geometry"/>
                </mxCell>
                <mxCell id="103" value="&lt;font color=&quot;#0000ff&quot;&gt;同步&lt;/font&gt;" style="edgeLabel;html=1;align=center;verticalAlign=middle;resizable=0;points=[];fontSize=16;fontColor=#FFFFFF;" parent="102" vertex="1" connectable="0">
                    <mxGeometry x="0.1518" relative="1" as="geometry">
                        <mxPoint x="-1" as="offset"/>
                    </mxGeometry>
                </mxCell>
                <mxCell id="104" style="edgeStyle=orthogonalEdgeStyle;curved=1;rounded=0;orthogonalLoop=1;jettySize=auto;html=1;exitX=1;exitY=0.75;exitDx=0;exitDy=0;entryX=0.75;entryY=1;entryDx=0;entryDy=0;fontSize=16;startArrow=classic;startFill=1;" parent="88" source="106" target="111" edge="1">
                    <mxGeometry relative="1" as="geometry"/>
                </mxCell>
                <mxCell id="105" value="同步" style="edgeLabel;html=1;align=center;verticalAlign=middle;resizable=0;points=[];fontSize=16;fontColor=#FFFFFF;" parent="104" vertex="1" connectable="0">
                    <mxGeometry x="-0.2799" y="16" relative="1" as="geometry">
                        <mxPoint as="offset"/>
                    </mxGeometry>
                </mxCell>
                <mxCell id="106" value="iframe&lt;br style=&quot;font-size: 16px;&quot;&gt;&lt;span style=&quot;color: rgb(255, 0, 0); font-size: 16px;&quot;&gt;http//hostA&lt;/span&gt;&lt;font color=&quot;#0000ff&quot; style=&quot;font-size: 16px;&quot;&gt;/patchB/#hashB&lt;/font&gt;" style="rounded=1;whiteSpace=wrap;html=1;shadow=0;glass=0;sketch=0;gradientColor=none;fontSize=16;labelBorderColor=none;" parent="88" vertex="1">
                    <mxGeometry x="400" y="197.5" width="200" height="60" as="geometry"/>
                </mxCell>
                <mxCell id="107" value="shadowRoot" style="whiteSpace=wrap;html=1;rounded=1;strokeWidth=1;spacing=4;arcSize=50;fontSize=16;labelBorderColor=none;" parent="88" vertex="1">
                    <mxGeometry x="270" y="210" width="100" height="35" as="geometry"/>
                </mxCell>
                <mxCell id="108" value="插入" style="edgeStyle=orthogonalEdgeStyle;curved=1;rounded=0;orthogonalLoop=1;jettySize=auto;html=1;exitX=0.5;exitY=0;exitDx=0;exitDy=0;entryX=0.5;entryY=1;entryDx=0;entryDy=0;fontSize=16;labelBorderColor=none;" parent="88" source="99" target="107" edge="1">
                    <mxGeometry relative="1" as="geometry"/>
                </mxCell>
                <mxCell id="109" style="edgeStyle=orthogonalEdgeStyle;curved=1;rounded=0;orthogonalLoop=1;jettySize=auto;html=1;exitX=0.5;exitY=0;exitDx=0;exitDy=0;entryX=0.5;entryY=1;entryDx=0;entryDy=0;fontSize=16;labelBorderColor=none;" parent="88" source="100" target="106" edge="1">
                    <mxGeometry relative="1" as="geometry">
                        <Array as="points">
                            <mxPoint x="541" y="285"/>
                            <mxPoint x="500" y="285"/>
                        </Array>
                    </mxGeometry>
                </mxCell>
                <mxCell id="110" value="运行" style="edgeLabel;html=1;align=center;verticalAlign=middle;resizable=0;points=[];fontSize=15;labelBorderColor=none;" parent="109" vertex="1" connectable="0">
                    <mxGeometry x="0.0122" y="1" relative="1" as="geometry">
                        <mxPoint as="offset"/>
                    </mxGeometry>
                </mxCell>
                <mxCell id="111" value="window" style="rounded=1;whiteSpace=wrap;html=1;fontSize=16;labelBorderColor=none;" parent="88" vertex="1">
                    <mxGeometry x="570" y="110" width="120" height="75.25" as="geometry"/>
                </mxCell>
                <mxCell id="112" value="未命名图层" parent="0"/>
                <mxCell id="113" value="" style="rounded=1;whiteSpace=wrap;html=1;fontColor=#00FF00;arcSize=3;fontSize=16;strokeColor=#000000;labelBorderColor=none;dashed=1;" parent="112" vertex="1">
                    <mxGeometry x="80" y="70" width="620" height="370" as="geometry"/>
                </mxCell>
                <mxCell id="114" value="应用A：&lt;font color=&quot;#ff0000&quot; style=&quot;font-size: 16px;&quot;&gt;http//hostA/patchA/#hashA&lt;/font&gt;" style="rounded=1;whiteSpace=wrap;html=1;shadow=0;glass=0;dashed=1;sketch=0;gradientColor=none;fontSize=16;labelBorderColor=none;" parent="112" vertex="1">
                    <mxGeometry x="80" y="417" width="620" height="23" as="geometry"/>
                </mxCell>
                <mxCell id="115" value="urll：&lt;font color=&quot;#ff0000&quot; style=&quot;font-size: 16px;&quot;&gt;http//hostA/patchA/#hashA&lt;/font&gt;&lt;span style=&quot;font-weight: 700; font-size: 16px;&quot;&gt;&lt;font color=&quot;#0000ff&quot; style=&quot;font-size: 16px;&quot;&gt;?B=patchB/#hashB&lt;/font&gt;&lt;/span&gt;" style="rounded=1;whiteSpace=wrap;html=1;shadow=0;glass=0;sketch=0;gradientColor=none;fontSize=16;labelBorderColor=none;" parent="112" vertex="1">
                    <mxGeometry x="80" y="70" width="620" height="23" as="geometry"/>
                </mxCell>
                <mxCell id="116" value="DOM Tree" style="rounded=1;whiteSpace=wrap;html=1;fontSize=16;labelBorderColor=none;" parent="112" vertex="1">
                    <mxGeometry x="100" y="140" width="110" height="80" as="geometry"/>
                </mxCell>
                <mxCell id="117" style="edgeStyle=orthogonalEdgeStyle;curved=1;rounded=0;orthogonalLoop=1;jettySize=auto;html=1;exitX=1;exitY=0.5;exitDx=0;exitDy=0;entryX=0.5;entryY=0;entryDx=0;entryDy=0;fontColor=#00FF00;fontSize=16;labelBorderColor=none;" parent="112" source="118" target="131" edge="1">
                    <mxGeometry relative="1" as="geometry"/>
                </mxCell>
                <mxCell id="118" value="容器" style="whiteSpace=wrap;html=1;rounded=1;arcSize=50;align=center;verticalAlign=middle;strokeWidth=1;autosize=1;spacing=4;treeFolding=1;treeMoving=1;newEdgeStyle={&quot;edgeStyle&quot;:&quot;entityRelationEdgeStyle&quot;,&quot;startArrow&quot;:&quot;none&quot;,&quot;endArrow&quot;:&quot;none&quot;,&quot;segment&quot;:10,&quot;curved&quot;:1};fontSize=16;labelBorderColor=none;" parent="112" vertex="1">
                    <mxGeometry x="235" y="140" width="70" height="30" as="geometry"/>
                </mxCell>
                <mxCell id="119" value="" style="edgeStyle=entityRelationEdgeStyle;startArrow=none;endArrow=none;segment=10;curved=1;exitX=1;exitY=0.5;exitDx=0;exitDy=0;fontSize=16;labelBorderColor=none;" parent="112" source="116" target="118" edge="1">
                    <mxGeometry relative="1" as="geometry">
                        <mxPoint x="185" y="140" as="sourcePoint"/>
                    </mxGeometry>
                </mxCell>
                <mxCell id="120" value="" style="group;fontSize=16;labelBorderColor=none;" parent="112" vertex="1" connectable="0">
                    <mxGeometry x="130" y="310" width="520" height="88" as="geometry"/>
                </mxCell>
                <mxCell id="121" value="" style="rounded=0;whiteSpace=wrap;html=1;shadow=0;glass=0;dashed=1;sketch=0;gradientColor=none;fontSize=16;labelBorderColor=none;" parent="120" vertex="1">
                    <mxGeometry width="520" height="88" as="geometry"/>
                </mxCell>
                <mxCell id="122" value="应用B： &lt;font color=&quot;#0000ff&quot; style=&quot;font-size: 16px;&quot;&gt;http//hostB/patchB/#hashB&lt;/font&gt;" style="rounded=0;whiteSpace=wrap;html=1;shadow=0;glass=0;dashed=1;sketch=0;gradientColor=none;fontSize=16;labelBorderColor=none;" parent="120" vertex="1">
                    <mxGeometry y="60" width="520" height="28" as="geometry"/>
                </mxCell>
                <mxCell id="123" value="html (dom、css、iframe)" style="rounded=0;whiteSpace=wrap;html=1;shadow=0;glass=0;dashed=1;sketch=0;gradientColor=none;fontSize=16;labelBorderColor=none;" parent="120" vertex="1">
                    <mxGeometry x="46.42857142857143" y="13.000000000000002" width="185.71428571428572" height="35.2" as="geometry"/>
                </mxCell>
                <mxCell id="124" value="js" style="rounded=0;whiteSpace=wrap;html=1;shadow=0;glass=0;dashed=1;sketch=0;gradientColor=none;fontSize=16;labelBorderColor=none;" parent="120" vertex="1">
                    <mxGeometry x="347.2142857142857" y="12.600000000000001" width="125.35714285714286" height="35.2" as="geometry"/>
                </mxCell>
                <mxCell id="125" value="改写document" style="edgeStyle=orthogonalEdgeStyle;curved=1;rounded=0;orthogonalLoop=1;jettySize=auto;html=1;exitX=0.5;exitY=0;exitDx=0;exitDy=0;entryX=0.75;entryY=0;entryDx=0;entryDy=0;fontSize=16;labelBorderColor=none;" parent="112" source="130" target="131" edge="1">
                    <mxGeometry relative="1" as="geometry"/>
                </mxCell>
                <mxCell id="126" style="edgeStyle=orthogonalEdgeStyle;curved=1;rounded=0;orthogonalLoop=1;jettySize=auto;html=1;exitX=0.75;exitY=0;exitDx=0;exitDy=0;entryX=0.5;entryY=1;entryDx=0;entryDy=0;fontSize=16;startArrow=classic;startFill=1;" parent="112" source="130" target="115" edge="1">
                    <mxGeometry relative="1" as="geometry"/>
                </mxCell>
                <mxCell id="127" value="&lt;font color=&quot;#0000ff&quot;&gt;同步&lt;/font&gt;" style="edgeLabel;html=1;align=center;verticalAlign=middle;resizable=0;points=[];fontSize=16;fontColor=#FFFFFF;" parent="126" vertex="1" connectable="0">
                    <mxGeometry x="0.1518" relative="1" as="geometry">
                        <mxPoint x="-1" as="offset"/>
                    </mxGeometry>
                </mxCell>
                <mxCell id="128" style="edgeStyle=orthogonalEdgeStyle;curved=1;rounded=0;orthogonalLoop=1;jettySize=auto;html=1;exitX=1;exitY=0.75;exitDx=0;exitDy=0;entryX=0.75;entryY=1;entryDx=0;entryDy=0;fontSize=16;startArrow=classic;startFill=1;" parent="112" source="130" target="135" edge="1">
                    <mxGeometry relative="1" as="geometry"/>
                </mxCell>
                <mxCell id="gxh63pNmdURrU8utKVV7-135" value="通信" style="edgeLabel;html=1;align=center;verticalAlign=middle;resizable=0;points=[];fontSize=16;" connectable="0" vertex="1" parent="128">
                    <mxGeometry x="0.3049" y="13" relative="1" as="geometry">
                        <mxPoint as="offset"/>
                    </mxGeometry>
                </mxCell>
                <mxCell id="130" value="iframe&lt;br style=&quot;font-size: 16px;&quot;&gt;&lt;span style=&quot;color: rgb(255, 0, 0); font-size: 16px;&quot;&gt;http//hostA&lt;/span&gt;&lt;font color=&quot;#0000ff&quot; style=&quot;font-size: 16px;&quot;&gt;/patchB/#hashB&lt;/font&gt;" style="rounded=1;whiteSpace=wrap;html=1;shadow=0;glass=0;sketch=0;gradientColor=none;fontSize=16;labelBorderColor=none;" parent="112" vertex="1">
                    <mxGeometry x="400" y="197.5" width="200" height="60" as="geometry"/>
                </mxCell>
                <mxCell id="131" value="shadowRoot" style="whiteSpace=wrap;html=1;rounded=1;strokeWidth=1;spacing=4;arcSize=50;fontSize=16;labelBorderColor=none;" parent="112" vertex="1">
                    <mxGeometry x="270" y="210" width="100" height="35" as="geometry"/>
                </mxCell>
                <mxCell id="132" value="插入" style="edgeStyle=orthogonalEdgeStyle;curved=1;rounded=0;orthogonalLoop=1;jettySize=auto;html=1;exitX=0.5;exitY=0;exitDx=0;exitDy=0;entryX=0.5;entryY=1;entryDx=0;entryDy=0;fontSize=16;labelBorderColor=none;" parent="112" source="123" target="131" edge="1">
                    <mxGeometry relative="1" as="geometry"/>
                </mxCell>
                <mxCell id="133" style="edgeStyle=orthogonalEdgeStyle;curved=1;rounded=0;orthogonalLoop=1;jettySize=auto;html=1;exitX=0.5;exitY=0;exitDx=0;exitDy=0;entryX=0.5;entryY=1;entryDx=0;entryDy=0;fontSize=16;labelBorderColor=none;" parent="112" source="124" target="130" edge="1">
                    <mxGeometry relative="1" as="geometry">
                        <Array as="points">
                            <mxPoint x="541" y="285"/>
                            <mxPoint x="500" y="285"/>
                        </Array>
                    </mxGeometry>
                </mxCell>
                <mxCell id="134" value="运行" style="edgeLabel;html=1;align=center;verticalAlign=middle;resizable=0;points=[];fontSize=15;labelBorderColor=none;" parent="133" vertex="1" connectable="0">
                    <mxGeometry x="0.0122" y="1" relative="1" as="geometry">
                        <mxPoint as="offset"/>
                    </mxGeometry>
                </mxCell>
                <mxCell id="135" value="window" style="rounded=1;whiteSpace=wrap;html=1;fontSize=16;labelBorderColor=none;" parent="112" vertex="1">
                    <mxGeometry x="570" y="110" width="120" height="75.25" as="geometry"/>
                </mxCell>
            </root>
        </mxGraphModel>
    </diagram>
</mxfile>